# Blender v2.79 (sub 0) OBJ File: 'asteroid02.blend'
# www.blender.org
mtllib asteroid02.mtl
o Cube
v -0.299436 0.904243 0.000000
v -0.790583 -0.243777 0.018058
v -0.792516 -0.238405 0.002934
v -0.292863 0.905988 0.000000
v -0.298680 0.904041 0.011576
v -0.789843 -0.243453 0.041551
v -0.790428 -0.240712 0.045263
v -0.785458 -0.253094 0.035597
v -0.308605 0.898549 -0.092096
v -0.234919 0.918110 -0.096118
v 0.604333 -0.473350 0.688255
v -0.495872 -0.602858 0.217961
v -0.466882 -0.605967 0.300222
v -0.044078 -0.714895 0.152953
v 0.677621 0.379010 -0.830125
v 0.417399 -0.278005 -1.330754
v 0.662413 -0.192269 -1.089518
v 0.548015 0.735382 -0.480861
v 0.679605 0.506655 -0.718921
v -0.371287 0.576459 0.956002
v -0.593977 0.023627 1.175234
v 0.603857 -0.470257 0.710664
v 0.592352 -0.483565 0.718846
v -0.449697 -0.206311 1.154406
v 0.565579 -0.498929 0.734672
v 0.582636 0.327660 0.556246
v 0.634205 0.208482 0.556426
v -0.789586 -0.197895 -0.196878
v -0.693036 0.106501 -0.675316
v 0.136337 -0.410639 -1.366220
v -0.216167 -0.704759 -0.511561
v -0.290417 -0.682682 -0.423267
vt 0.385548 0.145519
vt 0.639380 0.000000
vt 0.648323 0.012755
vt 0.643962 0.718531
vt 0.635315 0.713365
vt 0.643962 0.697057
vt 0.635348 0.715280
vt 0.634271 0.715173
vt 0.634271 0.820353
vt 0.572511 0.754441
vt 0.634271 0.697057
vt 0.700470 0.238293
vt 0.703073 0.239677
vt 0.699183 0.241086
vt 0.701936 0.233397
vt 0.702665 0.238319
vt 0.115889 0.144418
vt 0.194927 0.009624
vt 0.346506 0.234617
vt 0.000000 0.272590
vt 0.055862 0.219219
vt 0.031737 0.557280
vt 1.000000 0.609826
vt 0.819055 0.810278
vt 0.824838 0.687132
vt 0.346506 0.380840
vt 0.451495 0.697057
vt 0.435227 0.689428
vt 0.433546 0.688254
vt 0.981049 0.204925
vt 0.863511 0.111355
vt 0.896797 0.000000
vt 0.977754 0.604459
vt 0.979854 0.602970
vt 0.981049 0.609826
vt 0.975910 0.263493
vt 0.819055 0.459610
vt 0.813690 0.235078
vt 0.557143 0.735598
vt 0.561952 0.739970
vt 0.566687 0.749183
vt 0.648324 0.408081
vt 0.681924 0.261627
vt 0.819055 0.354930
vt 0.645709 0.006766
vt 0.645070 0.324257
vt 0.630533 0.379574
vt 0.346506 0.252735
vt 0.392452 0.504292
vt 0.625655 0.826791
vt 0.566687 0.731425
vt 0.176065 0.000000
vt 1.000000 0.913881
vt 0.657855 0.000000
vt 0.715027 0.046726
vt 0.300352 0.790410
vt 0.038773 0.621565
vt 0.083998 0.732881
vt 0.283719 0.802366
vt 0.648324 0.606683
vt 0.851404 0.174848
vt 0.723150 0.043424
vt 0.566687 0.948939
vt 0.373137 0.871825
vt 0.509432 1.000000
vt 0.346506 0.777257
vt 0.347359 0.697057
vt 0.819055 0.615900
vt 0.742549 0.776824
vt 0.732606 0.775049
vt 0.741469 0.777009
vn 0.4202 0.1832 0.8887
vn -0.2582 0.9655 -0.0339
vn -0.2565 0.9660 0.0336
vn -0.2342 -0.9711 0.0458
vn -0.9670 -0.2524 0.0339
vn -0.9016 -0.4313 0.0344
vn -0.7149 -0.5156 -0.4723
vn 0.6077 0.3149 -0.7291
vn -0.0848 -0.9018 0.4237
vn -0.7227 -0.6752 -0.1475
vn -0.2111 0.6439 -0.7354
vn 0.3653 0.8704 0.3300
vn 0.9105 0.3942 0.1246
vn 0.7826 -0.6142 0.1014
vn 0.9989 -0.0386 0.0265
vn -0.8060 -0.5297 0.2640
vn 0.4364 -0.8908 -0.1266
vn -0.9161 0.3955 0.0667
vn -0.2564 0.9660 -0.0342
vn -0.7227 -0.6753 -0.1475
vn -0.8060 -0.5297 0.2641
vn -0.9160 0.3955 0.0667
usemtl Material
s off
f 24/1/1 25/2/1 22/3/1
f 9/4/2 4/5/2 10/6/2
f 4/5/3 1/7/3 5/8/3
f 13/9/4 32/10/4 14/11/4
f 2/12/5 7/13/5 3/14/5
f 2/12/6 8/15/6 6/16/6
f 30/17/7 32/18/7 28/19/7
f 17/20/8 16/21/8 15/22/8
f 25/23/9 13/24/9 14/25/9
f 8/15/10 2/12/10 3/14/10
f 15/22/11 16/21/11 29/26/11
f 10/27/12 4/28/12 5/29/12
f 26/30/13 19/31/13 18/32/13
f 11/33/14 22/34/14 23/35/14
f 27/36/15 22/34/15 17/37/15
f 24/38/16 7/13/16 8/15/16
f 11/39/17 23/40/17 25/41/17
f 29/42/18 28/43/18 21/44/18
f 23/45/1 22/3/1 25/2/1
f 22/3/1 27/46/1 24/1/1
f 27/46/1 26/47/1 21/48/1
f 26/47/1 20/49/1 21/48/1
f 21/48/1 24/1/1 27/46/1
f 9/4/19 1/7/19 4/5/19
f 12/50/4 32/10/4 13/9/4
f 32/10/4 31/51/4 14/11/4
f 2/12/5 6/16/5 7/13/5
f 28/19/7 29/26/7 30/17/7
f 30/17/7 31/52/7 32/18/7
f 25/23/9 24/53/9 13/24/9
f 3/14/10 28/43/10 8/15/10
f 28/43/20 32/54/20 8/15/20
f 32/54/20 12/55/20 8/15/20
f 30/17/11 29/26/11 16/21/11
f 29/26/11 9/56/11 19/57/11
f 19/57/11 9/56/11 18/58/11
f 9/56/11 10/59/11 18/58/11
f 19/57/11 15/22/11 29/26/11
f 5/29/12 20/49/12 10/27/12
f 20/49/12 26/47/12 18/60/12
f 10/27/12 20/49/12 18/60/12
f 26/30/13 27/36/13 19/31/13
f 22/34/15 11/33/15 17/37/15
f 17/37/15 15/61/15 27/36/15
f 15/61/15 19/31/15 27/36/15
f 12/55/16 13/62/16 8/15/16
f 13/62/16 24/38/16 8/15/16
f 24/38/16 21/44/16 7/13/16
f 7/13/21 6/16/21 8/15/21
f 25/41/17 14/63/17 30/64/17
f 14/63/17 31/65/17 30/64/17
f 30/64/17 16/66/17 11/39/17
f 25/41/17 30/64/17 11/39/17
f 16/66/17 17/67/17 11/39/17
f 3/14/18 7/13/18 28/43/18
f 7/13/18 21/44/18 28/43/18
f 21/44/18 20/68/18 29/42/18
f 20/68/18 5/69/18 9/70/18
f 5/69/22 1/71/22 9/70/22
f 9/70/18 29/42/18 20/68/18
