# Blender v2.79 (sub 0) OBJ File: 'asteroid03.blend'
# www.blender.org
mtllib asteroid03.mtl
o Cube
v -1.257091 1.109354 0.000000
v -3.319019 -0.299074 0.022154
v -3.327136 -0.292482 0.003599
v -1.229497 1.111495 0.000000
v -1.253917 1.109105 0.014202
v -3.315913 -0.298675 0.050977
v -3.318370 -0.295313 0.055530
v -3.297504 -0.310503 0.043672
v -1.295582 1.102368 -0.112986
v -0.986237 1.126366 -0.117921
v -2.081766 -0.739606 0.267402
v -1.960059 -0.743420 0.368322
v -0.185047 -0.877055 0.187648
v 1.752320 -0.341065 -1.632611
v -1.887914 -0.253109 1.416262
v -3.314837 -0.242783 -0.241536
v -2.909499 0.130659 -0.828498
v 0.572368 -0.503785 -1.676122
v -0.907509 -0.864620 -0.627599
v -1.219226 -0.837536 -0.519277
v 2.213348 0.908146 -0.577395
v 1.971516 -0.653809 0.788977
v 2.707724 -0.243369 -1.357721
v 2.555103 0.251247 -1.181284
v 1.893021 -0.571557 0.959477
v 1.788511 0.452097 0.762940
v -1.381084 0.941441 0.497582
v -2.641326 -0.029091 1.193553
v -1.985152 -0.207823 1.420364
v 0.090097 0.581547 0.970933
vt 0.549779 0.714815
vt 0.541412 0.709474
vt 0.549779 0.692613
vt 0.541444 0.711454
vt 0.540402 0.711343
vt 0.628106 0.928359
vt 0.568347 0.860212
vt 0.628106 0.800882
vt 0.673424 0.555721
vt 0.670875 0.554360
vt 0.674606 0.552799
vt 0.672117 0.560820
vt 0.671300 0.555752
vt 0.108286 0.149315
vt 0.184762 0.009950
vt 0.331428 0.242572
vt 0.000000 0.277906
vt 0.050204 0.226653
vt 0.033051 0.483496
vt 0.725625 0.729142
vt 0.895110 0.684719
vt 0.720029 0.856464
vt 0.891996 0.627604
vt 0.877784 0.661796
vt 0.720029 0.483044
vt 1.000000 0.361758
vt 0.891996 0.104804
vt 1.000000 0.000000
vt 0.475212 0.716426
vt 0.540402 0.692613
vt 0.540402 0.944351
vt 0.082562 0.759640
vt 0.331428 0.393754
vt 0.357672 0.683723
vt 0.356110 0.682407
vt 0.343600 0.602119
vt 0.523851 0.394769
vt 0.423523 0.443068
vt 0.331428 0.136574
vt 0.720029 0.378836
vt 0.690836 0.531107
vt 0.576639 0.459109
vt 0.619769 0.935015
vt 0.562712 0.836416
vt 0.166511 0.000000
vt 0.868430 0.661796
vt 0.895110 0.963581
vt 0.720029 0.800882
vt 0.663671 0.754112
vt 0.740734 0.275129
vt 0.891996 0.195780
vt 0.796424 0.000000
vt 0.950511 0.414933
vt 0.393661 1.000000
vt 0.401004 0.775126
vt 0.331428 0.957904
vt 0.286770 0.817212
vt 0.270677 0.829573
vt 0.562712 0.613756
vt 0.372984 0.692613
vt 0.338391 0.119199
vt 0.562712 0.000000
vt 0.655889 0.757742
vt 0.563979 0.562066
vt 0.562712 0.542202
vt 0.591197 0.070464
vt 0.620554 0.000219
vt 0.630211 0.001789
vt 0.621594 0.000000
vn -0.0779 0.9964 -0.0349
vn -0.0773 0.9964 0.0347
vn -0.0702 -0.9964 0.0470
vn -0.7428 -0.6636 0.0892
vn -0.5201 -0.8514 0.0678
vn -0.2863 -0.7065 -0.6472
vn 0.2182 0.3869 -0.8959
vn -0.0249 -0.9048 0.4251
vn -0.2922 -0.9343 -0.2041
vn 0.9237 0.1610 0.3476
vn -0.0838 0.6503 0.7550
vn 0.1403 -0.9803 -0.1393
vn -0.0630 0.6575 -0.7508
vn 0.1139 0.9290 0.3522
vn 0.1341 0.2000 0.9706
vn -0.3698 -0.8315 0.4146
vn -0.5552 0.8201 0.1384
vn -0.0773 0.9964 -0.0353
vn -0.3698 -0.8315 0.4145
vn -0.5551 0.8202 0.1384
usemtl Material
s off
f 9/1/1 4/2/1 10/3/1
f 4/2/2 1/4/2 5/5/2
f 12/6/3 20/7/3 13/8/3
f 2/9/4 7/10/4 3/11/4
f 2/9/5 8/12/5 6/13/5
f 18/14/6 20/15/6 16/16/6
f 23/17/7 14/18/7 24/19/7
f 13/20/8 25/21/8 12/22/8
f 8/12/9 2/9/9 3/11/9
f 25/23/10 22/24/10 23/25/10
f 28/26/11 30/27/11 27/28/11
f 14/29/12 23/30/12 22/31/12
f 21/32/13 24/19/13 17/33/13
f 4/34/14 5/35/14 27/36/14
f 26/37/15 30/38/15 29/39/15
f 7/10/16 6/13/16 8/12/16
f 17/40/17 16/41/17 28/42/17
f 9/1/18 1/4/18 4/2/18
f 11/43/3 20/7/3 12/6/3
f 20/7/3 19/44/3 13/8/3
f 2/9/4 6/13/4 7/10/4
f 16/16/6 17/33/6 18/14/6
f 18/14/6 19/45/6 20/15/6
f 22/46/8 25/21/8 13/20/8
f 25/21/8 15/47/8 12/22/8
f 3/11/9 16/41/9 8/12/9
f 16/41/9 20/48/9 8/12/9
f 20/48/9 11/49/9 8/12/9
f 23/25/10 24/50/10 26/51/10
f 24/50/10 21/52/10 26/51/10
f 26/51/10 25/23/10 23/25/10
f 28/26/11 29/53/11 30/27/11
f 22/31/12 13/54/12 18/55/12
f 13/54/12 19/56/12 18/55/12
f 18/55/12 14/29/12 22/31/12
f 18/14/13 17/33/13 14/18/13
f 17/33/13 9/57/13 21/32/13
f 14/18/13 17/33/13 24/19/13
f 9/57/13 10/58/13 21/32/13
f 27/36/14 30/38/14 21/59/14
f 30/38/14 26/37/14 21/59/14
f 21/59/14 10/60/14 27/36/14
f 10/60/14 4/34/14 27/36/14
f 15/61/15 25/62/15 29/39/15
f 25/62/15 26/37/15 29/39/15
f 11/49/19 12/63/19 8/12/19
f 12/63/19 15/64/19 8/12/19
f 15/64/19 29/65/19 7/10/19
f 29/65/19 28/42/19 7/10/19
f 15/64/19 7/10/19 8/12/19
f 3/11/20 7/10/20 16/41/20
f 7/10/17 28/42/17 16/41/17
f 28/42/17 27/66/17 17/40/17
f 27/66/17 5/67/17 9/68/17
f 5/67/20 1/69/20 9/68/20
f 9/68/17 17/40/17 27/66/17
