# Blender v2.79 (sub 0) OBJ File: 'player.blend'
# www.blender.org
mtllib player.mtl
o Cube
v 1.138094 -0.453822 -1.000000
v 1.138094 0.064062 -1.000000
v 1.138094 -0.453822 0.440191
v 1.138093 -0.058732 0.440191
v 0.504675 -0.530190 -1.000000
v 0.504674 0.198598 -1.000000
v 0.504674 -0.679175 1.000000
v 0.504674 0.333607 1.000000
v 0.504674 -0.679175 0.440191
v 0.504674 0.330026 0.440191
v 0.504674 -0.575076 2.807878
v 0.504673 0.010195 2.807878
v 0.504674 -0.596699 1.919588
v 0.504673 0.361471 1.919588
v 0.504673 -0.493533 3.371365
v 0.504673 -0.303447 3.371365
v 0.504674 0.299012 -1.303289
v 1.198713 0.164475 -1.303289
v 1.198713 -0.474060 -1.303289
v 0.504675 -0.550429 -1.303289
v 1.138094 -0.364786 0.440191
v 1.138094 -0.459370 -1.000000
v 1.138094 -0.307376 -1.000000
v 1.138093 -0.307376 0.440191
v 3.644068 -1.135010 0.153733
v 3.644068 -1.135010 -0.713542
v 3.644068 -1.053964 -0.713542
v 3.644068 -1.053964 0.153733
v 1.138093 0.067643 0.694647
v 0.504674 0.344523 1.254456
v 0.504674 -0.596699 1.254456
v 1.138094 -0.364786 0.694647
v 1.138093 -0.307376 0.694647
v 1.138093 -0.216085 0.440191
v 1.138094 -0.216085 -1.000000
v 1.138093 -0.301830 0.440191
v 1.138094 -0.301830 -1.000000
v 3.261362 0.433850 0.045599
v 3.261362 0.433850 -0.605408
v 3.261362 0.348105 0.045599
v 3.261362 0.348105 -0.605408
v 0.504674 0.350555 1.337429
v 0.504674 -0.679175 1.337429
v 0.736225 -0.120105 2.807878
v 0.736226 -0.188245 2.807878
v 0.736226 -0.190763 1.919588
v 0.736226 -0.190763 1.337429
v 0.736225 -0.066884 1.919588
v 0.736226 -0.066884 1.337429
v 3.337204 0.433850 0.045599
v 3.337204 0.433850 -0.605408
v 3.337204 0.348105 0.045599
v 3.337204 0.348105 -0.605408
v 3.261362 0.433850 0.786284
v 3.261362 0.348105 0.786284
v 3.337203 0.433850 0.786284
v 3.337203 0.348105 0.786284
v 3.705286 -1.135010 0.153733
v 3.705287 -1.135010 -0.713541
v 3.705286 -1.053963 -0.713542
v 3.705286 -1.053963 0.153733
v 3.644068 -1.135011 0.741706
v 3.644068 -1.053964 0.741706
v 3.705286 -1.135010 0.741706
v 3.705286 -1.053964 0.741707
v 0.552473 0.141409 -1.134912
v 1.090295 0.027177 -1.134912
v 1.090296 -0.412547 -1.134911
v 0.552473 -0.477390 -1.134911
v -1.138094 -0.453822 -1.000000
v -1.138094 0.064062 -1.000000
v 0.000000 -0.679175 1.000000
v -0.000000 -0.530190 -1.000000
v 0.000000 0.456401 1.000000
v -0.000000 0.289859 -1.000000
v -1.138094 -0.453822 0.440191
v -1.138093 -0.058732 0.440191
v 0.000000 0.456401 0.440190
v 0.000000 -0.679175 0.440190
v -0.504675 -0.530190 -1.000000
v -0.504674 0.198598 -1.000000
v -0.504674 -0.679175 1.000000
v -0.504674 0.333607 1.000000
v -0.504674 -0.679175 0.440191
v -0.504674 0.330026 0.440191
v -0.504674 -0.575076 2.807878
v 0.000000 -0.575076 2.807878
v -0.504673 0.010195 2.807878
v 0.000000 0.010195 2.807878
v -0.504674 -0.596699 1.919588
v 0.000000 -0.596699 1.919588
v 0.000000 0.361471 1.919588
v -0.504673 0.361471 1.919588
v -0.504673 -0.493533 3.371365
v 0.000000 -0.493533 3.371365
v -0.504673 -0.303447 3.371365
v 0.000000 -0.303447 3.371365
v -0.504674 0.299012 -1.303289
v -1.198713 0.164475 -1.303289
v -1.198713 -0.474060 -1.303289
v -0.504675 -0.550429 -1.303289
v -1.138094 -0.364786 0.440191
v -1.138094 -0.459370 -1.000000
v -1.138094 -0.307376 -1.000000
v -1.138093 -0.307376 0.440191
v -3.644068 -1.135010 0.153733
v -3.644068 -1.135010 -0.713541
v -3.644068 -1.053964 -0.713542
v -3.644068 -1.053964 0.153733
v -1.138093 0.067643 0.694647
v -0.504674 0.344523 1.254456
v -0.504674 -0.596699 1.254456
v -1.138094 -0.364786 0.694647
v -1.138093 -0.307376 0.694647
v -1.138093 -0.216085 0.440191
v -1.138094 -0.216085 -1.000000
v -1.138093 -0.301830 0.440191
v -1.138094 -0.301830 -1.000000
v -3.261362 0.433850 0.045599
v -3.261362 0.433850 -0.605407
v -3.261362 0.348105 0.045599
v -3.261362 0.348105 -0.605407
v 0.000000 -0.679175 1.337429
v 0.000000 0.350555 1.337429
v -0.504674 0.350555 1.337429
v -0.504674 -0.679175 1.337429
v -0.736225 -0.120105 2.807878
v -0.736226 -0.188245 2.807878
v -0.736226 -0.190763 1.919588
v -0.736226 -0.190763 1.337429
v -0.736225 -0.066884 1.919588
v -0.736226 -0.066884 1.337429
v -3.337204 0.433850 0.045599
v -3.337204 0.433850 -0.605407
v -3.337204 0.348105 0.045599
v -3.337204 0.348105 -0.605407
v -3.261362 0.433850 0.786284
v -3.261362 0.348105 0.786284
v -3.337203 0.433850 0.786284
v -3.337203 0.348105 0.786284
v -3.705286 -1.135010 0.153733
v -3.705287 -1.135010 -0.713541
v -3.705286 -1.053963 -0.713542
v -3.705286 -1.053963 0.153733
v -3.644068 -1.135011 0.741706
v -3.644068 -1.053964 0.741707
v -3.705286 -1.135010 0.741707
v -3.705286 -1.053964 0.741707
v -0.552473 0.141409 -1.134912
v -1.090295 0.027177 -1.134912
v -1.090296 -0.412547 -1.134911
v -0.552473 -0.477390 -1.134911
vt 0.721982 0.904371
vt 0.721982 0.971003
vt 0.705521 0.967178
vt 0.705522 0.915606
vt 0.647793 0.913433
vt 0.647793 0.964116
vt 0.647793 0.927765
vt 0.647793 0.912890
vt 0.126822 0.323741
vt 0.176190 0.323741
vt 0.176236 0.410686
vt 0.126868 0.410686
vt 0.330318 0.179425
vt 0.328814 0.038515
vt 0.378899 0.038491
vt 0.380793 0.179393
vt 0.176248 0.178748
vt 0.126880 0.178748
vt 0.126269 0.038546
vt 0.175637 0.038546
vt 0.176317 0.233485
vt 0.126949 0.233485
vt 0.330374 0.234210
vt 0.380810 0.234179
vt 0.264404 0.179524
vt 0.237554 0.179681
vt 0.237295 0.180049
vt 0.237377 0.038862
vt 0.265729 0.038549
vt 0.089062 0.815253
vt 0.008808 0.815253
vt 0.017739 0.765898
vt 0.089062 0.765898
vt 0.361701 0.763105
vt 0.361701 0.820088
vt 0.319786 0.819378
vt 0.320854 0.762416
vt 0.330710 0.324198
vt 0.379780 0.324198
vt 0.375897 0.411219
vt 0.326827 0.411219
vt 0.325699 0.906360
vt 0.312948 0.906197
vt 0.330572 0.267228
vt 0.379642 0.267228
vt 0.126990 0.266478
vt 0.176358 0.266478
vt 0.956916 0.663333
vt 0.938313 0.663333
vt 0.938313 0.613943
vt 0.956916 0.613943
vt 0.372423 0.466444
vt 0.323354 0.466444
vt 0.176068 0.466119
vt 0.126700 0.466119
vt 0.260944 0.008842
vt 0.329922 0.008808
vt 0.914597 0.812177
vt 0.914597 0.883499
vt 0.884916 0.893326
vt 0.884916 0.810196
vt 0.136339 0.876471
vt 0.136339 0.927154
vt 0.106678 0.929134
vt 0.106678 0.866644
vt 0.175658 0.008808
vt 0.243328 0.009124
vt 0.653887 0.283706
vt 0.513775 0.268416
vt 0.568864 0.020967
vt 0.653239 0.030175
vt 0.168612 0.741410
vt 0.180629 0.600467
vt 0.196029 0.600467
vt 0.196029 0.741410
vt 0.947478 0.284781
vt 0.938781 0.425456
vt 0.939323 0.425490
vt 0.938781 0.284244
vt 0.278560 0.923976
vt 0.278560 0.962642
vt 0.278560 0.953928
vt 0.278559 0.948310
vt 0.569512 0.015050
vt 0.653887 0.024258
vt 0.513304 0.315221
vt 0.653828 0.301322
vt 0.653234 0.549745
vt 0.568863 0.558256
vt 0.861930 0.564553
vt 0.867300 0.566203
vt 0.867300 0.822773
vt 0.859719 0.820443
vt 0.828276 0.288416
vt 0.842553 0.284244
vt 0.840874 0.538966
vt 0.833261 0.541191
vt 0.237326 0.204929
vt 0.176108 0.258706
vt 0.482689 0.484060
vt 0.482689 0.583176
vt 0.420699 0.552408
vt 0.420699 0.522456
vt 0.511662 0.955210
vt 0.511662 0.949592
vt 0.536564 0.949592
vt 0.536564 0.955210
vt 0.420699 0.602450
vt 0.445602 0.601382
vt 0.445602 0.693494
vt 0.420699 0.701566
vt 0.846529 0.948034
vt 0.827816 0.930851
vt 0.827948 0.846863
vt 0.846529 0.863477
vt 0.511662 0.925258
vt 0.536564 0.912890
vt 0.895525 0.509524
vt 0.887483 0.507129
vt 0.885366 0.291352
vt 0.893409 0.293747
vt 0.739194 0.270343
vt 0.739194 0.267576
vt 0.739194 0.267637
vt 0.739194 0.268592
vt 0.721578 0.267576
vt 0.721578 0.271710
vt 0.721578 0.268592
vt 0.721578 0.267637
vt 0.866758 0.981333
vt 0.866758 0.840389
vt 0.867300 0.840389
vt 0.867300 0.981333
vt 0.982923 0.637040
vt 0.974532 0.637040
vt 0.974532 0.564553
vt 0.982923 0.564553
vt 0.511662 0.587601
vt 0.650638 0.611074
vt 0.579163 0.801039
vt 0.516342 0.790428
vt 0.912674 0.567009
vt 0.920698 0.564553
vt 0.920698 0.781864
vt 0.912674 0.784320
vt 0.810124 0.225181
vt 0.671502 0.249960
vt 0.676171 0.040057
vt 0.738831 0.028856
vt 0.453722 0.600791
vt 0.453722 0.701566
vt 0.307664 0.819151
vt 0.306281 0.906072
vt 0.308732 0.762188
vt 0.267946 0.818330
vt 0.260944 0.761216
vt 0.566808 0.887294
vt 0.511662 0.895275
vt 0.511662 0.837997
vt 0.566808 0.868692
vt 0.493982 0.600791
vt 0.493982 0.701566
vt 0.471337 0.660713
vt 0.471337 0.648590
vt 0.268432 0.905287
vt 0.049084 0.894976
vt 0.071745 0.882224
vt 0.071745 0.939502
vt 0.049084 0.901645
vt 0.974532 0.700750
vt 0.982923 0.700750
vt 0.674874 0.032752
vt 0.737535 0.021552
vt 0.887483 0.284244
vt 0.895525 0.286638
vt 0.577933 0.808309
vt 0.515112 0.797699
vt 0.703963 0.267576
vt 0.703963 0.275967
vt 0.696540 0.275967
vt 0.696540 0.267576
vt 0.973485 0.516763
vt 0.965093 0.516763
vt 0.965093 0.444276
vt 0.973485 0.444276
vt 0.808827 0.008808
vt 0.810124 0.016113
vt 0.650638 0.813111
vt 0.649408 0.820381
vt 0.965093 0.341785
vt 0.973025 0.341785
vt 0.973025 0.426661
vt 0.965093 0.426661
vt 0.653828 0.555704
vt 0.569456 0.564215
vt 0.512256 0.569986
vt 0.511662 0.564027
vt 0.842553 0.544712
vt 0.834940 0.546937
vt 0.426690 0.719182
vt 0.426690 0.727113
vt 0.420699 0.727113
vt 0.420699 0.719182
vt 0.965093 0.284244
vt 0.973025 0.284244
vt 0.622245 0.912890
vt 0.630177 0.912890
vt 0.630177 0.970432
vt 0.622245 0.970432
vt 0.511662 0.014725
vt 0.512310 0.008808
vt 0.671444 0.832542
vt 0.724041 0.826196
vt 0.724041 0.886755
vt 0.671444 0.875576
vt 0.232379 0.877416
vt 0.232379 0.960547
vt 0.215885 0.945123
vt 0.215885 0.884564
vt 0.775118 0.966861
vt 0.775118 0.904371
vt 0.791639 0.910391
vt 0.791639 0.953424
vt 0.972341 0.167669
vt 0.972341 0.235955
vt 0.956529 0.225641
vt 0.956488 0.172695
vt 0.687905 0.972702
vt 0.671445 0.962845
vt 0.671444 0.909831
vt 0.687905 0.904371
vt 0.809255 0.955054
vt 0.809255 0.955597
vt 0.809255 0.940722
vt 0.809255 0.904371
vt 0.077500 0.410686
vt 0.077454 0.323741
vt 0.428457 0.179425
vt 0.426953 0.038515
vt 0.077512 0.178748
vt 0.076901 0.038546
vt 0.077581 0.233485
vt 0.428513 0.234210
vt 0.485719 0.179523
vt 0.014634 0.180049
vt 0.014894 0.179681
vt 0.014716 0.038862
vt 0.487044 0.038549
vt 0.089062 0.864609
vt 0.017739 0.864609
vt 0.480073 0.904471
vt 0.439226 0.905144
vt 0.438158 0.848182
vt 0.480073 0.847488
vt 0.837030 0.150885
vt 0.871407 0.063953
vt 0.928685 0.063953
vt 0.930801 0.150885
vt 0.428849 0.324198
vt 0.424966 0.411219
vt 0.431321 0.761363
vt 0.444072 0.761216
vt 0.428711 0.267228
vt 0.838098 0.207858
vt 0.938872 0.207858
vt 0.077622 0.266478
vt 0.956916 0.564553
vt 0.938313 0.564553
vt 0.421493 0.466444
vt 0.902102 0.008808
vt 0.920705 0.008808
vt 0.077332 0.466119
vt 0.428062 0.008808
vt 0.494047 0.008842
vt 0.136359 0.847048
vt 0.106678 0.849028
vt 0.106678 0.765898
vt 0.136359 0.775725
vt 0.168612 0.887243
vt 0.198269 0.877416
vt 0.198269 0.939907
vt 0.168612 0.937926
vt 0.008808 0.009124
vt 0.076922 0.008808
vt 0.403084 0.484060
vt 0.402392 0.721103
vt 0.318094 0.730987
vt 0.263099 0.500473
vt 0.241061 0.741410
vt 0.213644 0.741410
vt 0.213644 0.600467
vt 0.229044 0.600467
vt 0.956488 0.009346
vt 0.965185 0.008808
vt 0.964643 0.150054
vt 0.965185 0.150020
vt 0.260944 0.962642
vt 0.260944 0.938308
vt 0.260944 0.932690
vt 0.260944 0.923976
vt 0.403084 0.727015
vt 0.318785 0.736899
vt 0.010514 0.733966
vt 0.066014 0.495410
vt 0.150393 0.503843
vt 0.150996 0.748282
vt 0.862380 0.542464
vt 0.860169 0.286574
vt 0.867750 0.284244
vt 0.867750 0.540813
vt 0.827816 0.825107
vt 0.832819 0.570303
vt 0.840437 0.572511
vt 0.842103 0.829248
vt 0.077372 0.258706
vt 0.014666 0.204929
vt 0.230602 0.582851
vt 0.168612 0.544455
vt 0.168612 0.514503
vt 0.230602 0.483735
vt 0.579082 0.955210
vt 0.554180 0.955210
vt 0.554180 0.949592
vt 0.579082 0.949592
vt 0.201634 0.760685
vt 0.201634 0.859801
vt 0.176732 0.851729
vt 0.176732 0.759616
vt 0.951084 0.810196
vt 0.951084 0.893165
vt 0.932792 0.910096
vt 0.932213 0.827205
vt 0.554180 0.912890
vt 0.579082 0.925258
vt 0.895058 0.564553
vt 0.892967 0.783099
vt 0.884916 0.785464
vt 0.887007 0.566918
vt 0.476367 0.721949
vt 0.476367 0.720198
vt 0.476367 0.719243
vt 0.476367 0.719182
vt 0.493982 0.719182
vt 0.493982 0.719243
vt 0.493982 0.720198
vt 0.493982 0.723316
vt 0.991183 0.425187
vt 0.990641 0.425187
vt 0.990641 0.284244
vt 0.991183 0.284244
vt 0.991192 0.072518
vt 0.991192 0.145005
vt 0.982801 0.145005
vt 0.982801 0.072518
vt 0.671444 0.546937
vt 0.676132 0.329866
vt 0.739061 0.319921
vt 0.810660 0.524936
vt 0.913141 0.501554
vt 0.913141 0.284244
vt 0.921165 0.286700
vt 0.921165 0.504010
vt 0.810200 0.588561
vt 0.738838 0.788925
vt 0.676116 0.778072
vt 0.671444 0.564553
vt 0.827739 0.240880
vt 0.938873 0.240880
vt 0.168612 0.859801
vt 0.168612 0.759026
vt 0.426037 0.848409
vt 0.424653 0.761488
vt 0.427105 0.905372
vt 0.386318 0.849246
vt 0.379316 0.906360
vt 0.584423 0.887294
vt 0.584423 0.868692
vt 0.639569 0.837997
vt 0.639569 0.895275
vt 0.241895 0.859801
vt 0.219250 0.812002
vt 0.219250 0.799879
vt 0.241895 0.759026
vt 0.386804 0.762290
vt 0.008808 0.926750
vt 0.008808 0.920081
vt 0.031469 0.882224
vt 0.031469 0.939502
vt 0.982801 0.008808
vt 0.991192 0.008808
vt 0.737564 0.796233
vt 0.674842 0.785381
vt 0.895058 0.790215
vt 0.887007 0.792580
vt 0.674983 0.322582
vt 0.737912 0.312637
vt 0.671502 0.267576
vt 0.678925 0.267576
vt 0.678925 0.275967
vt 0.671502 0.275967
vt 0.938781 0.515592
vt 0.938781 0.443105
vt 0.947172 0.443105
vt 0.947172 0.515592
vt 0.810200 0.801272
vt 0.808926 0.808581
vt 0.809511 0.301322
vt 0.810660 0.308606
vt 0.968700 0.895071
vt 0.968700 0.810196
vt 0.976631 0.810196
vt 0.976631 0.895071
vt 0.066617 0.489452
vt 0.150996 0.497885
vt 0.008808 0.489693
vt 0.009411 0.483735
vt 0.834485 0.564553
vt 0.842103 0.566761
vt 0.450297 0.727113
vt 0.444306 0.727113
vt 0.444306 0.719182
vt 0.450297 0.719182
vt 0.976631 0.952613
vt 0.968700 0.952613
vt 0.596698 0.970432
vt 0.596698 0.912890
vt 0.604630 0.912890
vt 0.604630 0.970432
vt 0.261635 0.743600
vt 0.260944 0.737688
vt 0.794253 0.832542
vt 0.794253 0.875576
vt 0.741656 0.886755
vt 0.741656 0.826196
vt 0.954811 0.764079
vt 0.938313 0.756931
vt 0.938313 0.696372
vt 0.954811 0.680948
vt 0.884916 0.910942
vt 0.901430 0.924379
vt 0.901430 0.967412
vt 0.884916 0.973432
vt 0.757502 0.971874
vt 0.741656 0.967808
vt 0.741698 0.915528
vt 0.757502 0.904371
vn -0.1051 0.9168 -0.3852
vn -0.8399 0.0000 0.5428
vn 0.0000 -0.9997 0.0243
vn 0.2097 0.9726 -0.1006
vn 0.0000 -0.9947 -0.1029
vn 0.0000 -1.0000 0.0000
vn 0.2397 0.9709 -0.0031
vn 0.5231 0.8523 -0.0055
vn 0.4401 -0.8868 0.1410
vn 0.2314 -0.9716 -0.0503
vn 0.3818 0.9242 -0.0028
vn 0.0000 -0.0000 -1.0000
vn 0.8771 0.4803 -0.0045
vn -0.0000 0.9299 0.3677
vn 0.7619 0.6316 0.1438
vn 0.0000 0.9998 -0.0187
vn 0.0000 -0.9901 0.1403
vn -0.0000 -0.0000 1.0000
vn -0.0000 0.8738 0.4863
vn 0.0000 -0.9897 0.1432
vn 0.1878 0.9267 0.3256
vn -1.0000 -0.0000 -0.0000
vn 0.9806 0.0000 0.1960
vn 0.1140 -0.9905 0.0775
vn 0.2855 0.9584 0.0000
vn 1.0000 0.0000 0.0000
vn -0.6745 0.0000 -0.7382
vn -0.0000 1.0000 0.0000
vn -0.2770 -0.9601 0.0394
vn 0.1136 -0.0000 0.9935
vn 0.1136 -0.0000 -0.9935
vn 0.4933 -0.8587 0.1392
vn 0.6622 0.0000 0.7493
vn -0.2695 -0.9298 0.2508
vn 0.1827 0.0000 -0.9832
vn -0.2927 0.9562 -0.0000
vn 0.1827 0.0000 0.9832
vn 0.2927 -0.9562 0.0000
vn 0.1197 0.9843 0.1297
vn 0.8875 -0.4596 0.0326
vn 0.8634 -0.5044 0.0069
vn 0.9620 0.0000 -0.2731
vn -0.8408 -0.0000 -0.5414
vn -0.1476 -0.7308 -0.6665
vn 0.1051 0.9168 -0.3852
vn 0.8705 0.0000 0.4922
vn -0.2097 0.9726 -0.1006
vn -0.2397 0.9709 -0.0031
vn -0.5231 0.8523 -0.0055
vn -0.4401 -0.8868 0.1410
vn -0.2314 -0.9716 -0.0503
vn -0.3818 0.9242 -0.0028
vn -0.8771 0.4803 -0.0045
vn -0.7619 0.6316 0.1438
vn -0.1878 0.9267 0.3256
vn -0.9806 0.0000 0.1960
vn -0.1140 -0.9905 0.0775
vn -0.2855 0.9584 0.0000
vn 0.6745 0.0000 -0.7382
vn 0.2770 -0.9601 0.0394
vn -0.1136 -0.0000 0.9935
vn -0.1136 -0.0000 -0.9935
vn -0.4933 -0.8587 0.1392
vn -0.6622 0.0000 0.7493
vn 0.2695 -0.9298 0.2508
vn -0.1827 0.0000 -0.9832
vn 0.2927 0.9562 -0.0000
vn -0.1827 0.0000 0.9832
vn -0.2927 -0.9562 0.0000
vn -0.1197 0.9843 0.1297
vn -0.8875 -0.4596 0.0326
vn -0.8634 -0.5044 0.0069
vn -0.9620 0.0000 -0.2731
vn 0.8408 -0.0000 -0.5414
vn 0.1476 -0.7308 -0.6665
usemtl Material
s off
f 19/1/1 20/2/1 69/3/1 68/4/1
f 1/5/2 2/6/2 23/7/2 22/8/2
f 91/9/3 13/10/3 11/11/3 87/12/3
f 10/13/4 6/14/4 75/15/4 78/16/4
f 9/17/5 79/18/5 73/19/5 5/20/5
f 7/21/6 72/22/6 79/18/6 9/17/6
f 8/23/7 10/13/7 78/16/7 74/24/7
f 8/23/8 4/25/8 10/13/8
f 7/21/9 9/17/9 3/26/9 21/27/9
f 3/26/10 9/17/10 5/20/10 1/28/10
f 4/25/11 2/29/11 6/14/11 10/13/11
f 73/30/12 75/31/12 6/32/12 5/33/12
f 42/34/13 14/35/13 48/36/13 49/37/13
f 14/38/14 92/39/14 89/40/14 12/41/14
f 14/35/15 12/42/15 44/43/15 48/36/15
f 42/44/16 124/45/16 92/39/16 14/38/16
f 123/46/17 43/47/17 13/10/17 91/9/17
f 15/48/18 16/49/18 97/50/18 95/51/18
f 12/41/19 89/40/19 97/52/19 16/53/19
f 87/12/20 11/11/20 15/54/20 95/55/20
f 6/14/21 2/29/21 18/56/21 17/57/21
f 5/58/22 6/59/22 17/60/22 20/61/22
f 2/62/23 1/63/23 19/64/23 18/65/23
f 1/28/24 5/20/24 20/66/24 19/67/24
f 23/68/25 24/69/25 28/70/25 27/71/25
f 2/72/26 4/73/26 34/74/26 35/75/26
f 3/76/26 1/77/26 22/78/26 21/79/26
f 4/80/27 3/81/27 21/82/27 24/83/27
f 27/71/28 28/70/28 61/84/28 60/85/28
f 21/86/29 22/87/29 26/88/29 25/89/29
f 24/90/30 21/91/30 25/92/30 28/93/30
f 22/94/31 23/95/31 27/96/31 26/97/31
f 7/21/32 21/27/32 32/98/32 31/99/32
f 8/100/33 7/101/33 21/102/33 4/103/33
f 21/104/26 24/105/26 33/106/26 32/107/26
f 8/108/26 30/109/26 31/110/26 7/111/26
f 4/112/34 29/113/34 30/114/34 8/115/34
f 24/105/26 4/116/26 29/117/26 33/106/26
f 37/118/35 35/119/35 39/120/35 41/121/35
f 4/122/26 24/123/26 36/124/26 34/125/26
f 23/126/26 2/127/26 35/128/26 37/129/26
f 24/130/26 23/131/26 37/132/26 36/133/26
f 52/134/26 50/135/26 56/136/26 57/137/26
f 35/138/36 34/139/36 38/140/36 39/141/36
f 34/142/37 36/143/37 40/144/37 38/145/37
f 36/146/38 37/147/38 41/148/38 40/149/38
f 72/22/6 7/21/6 43/47/6 123/46/6
f 8/23/39 74/24/39 124/45/39 42/44/39
f 7/111/26 8/108/26 42/150/26 43/151/26
f 46/152/26 48/36/26 44/43/26 45/153/26
f 47/154/26 49/37/26 48/36/26 46/152/26
f 13/155/40 43/156/40 47/154/40 46/152/40
f 15/157/26 11/158/26 12/159/26 16/160/26
f 43/161/12 42/162/12 49/163/12 47/164/12
f 11/165/41 13/155/41 46/152/41 45/153/41
f 44/166/18 12/167/18 11/168/18 45/169/18
f 51/170/26 50/135/26 52/134/26 53/171/26
f 40/149/6 41/148/6 53/172/6 52/173/6
f 41/121/12 39/120/12 51/174/12 53/175/12
f 39/141/28 38/140/28 50/176/28 51/177/28
f 54/178/18 55/179/18 57/180/18 56/181/18
f 38/182/22 40/183/22 55/184/22 54/185/22
f 40/149/6 52/173/6 57/186/6 55/187/6
f 50/176/28 38/140/28 54/188/28 56/189/28
f 61/190/26 58/191/26 59/192/26 60/193/26
f 25/89/6 26/88/6 59/194/6 58/195/6
f 25/89/6 58/195/6 64/196/6 62/197/6
f 26/97/12 27/96/12 60/198/12 59/199/12
f 63/200/18 62/201/18 64/202/18 65/203/18
f 58/191/26 61/190/26 65/204/26 64/205/26
f 28/206/22 25/207/22 62/208/22 63/209/22
f 61/84/28 28/70/28 63/210/28 65/211/28
f 68/212/12 69/213/12 66/214/12 67/215/12
f 20/216/42 17/217/42 66/218/42 69/219/42
f 18/220/43 19/221/43 68/222/43 67/223/43
f 17/224/44 18/225/44 67/226/44 66/227/44
f 100/228/45 151/229/45 152/230/45 101/231/45
f 70/232/46 103/233/46 104/234/46 71/235/46
f 91/9/3 87/12/3 86/236/3 90/237/3
f 85/238/47 78/16/47 75/15/47 81/239/47
f 84/240/5 80/241/5 73/19/5 79/18/5
f 82/242/6 84/240/6 79/18/6 72/22/6
f 83/243/48 74/24/48 78/16/48 85/238/48
f 83/243/49 85/238/49 77/244/49
f 82/242/50 102/245/50 76/246/50 84/240/50
f 76/246/51 70/247/51 80/241/51 84/240/51
f 77/244/52 85/238/52 81/239/52 71/248/52
f 73/30/12 80/249/12 81/250/12 75/31/12
f 125/251/53 132/252/53 131/253/53 93/254/53
f 92/255/26 89/256/26 87/257/26 91/258/26
f 93/259/14 88/260/14 89/40/14 92/39/14
f 93/254/54 131/253/54 127/261/54 88/262/54
f 125/263/16 93/259/16 92/39/16 124/45/16
f 124/264/26 92/255/26 91/258/26 123/265/26
f 123/46/17 91/9/17 90/237/17 126/266/17
f 94/267/18 95/51/18 97/50/18 96/268/18
f 88/260/19 96/269/19 97/52/19 89/40/19
f 89/256/26 97/270/26 95/271/26 87/257/26
f 87/12/20 95/55/20 94/272/20 86/236/20
f 81/239/55 98/273/55 99/274/55 71/248/55
f 80/275/26 101/276/26 98/277/26 81/278/26
f 71/279/56 99/280/56 100/281/56 70/282/56
f 70/247/57 100/283/57 101/284/57 80/241/57
f 104/285/58 108/286/58 109/287/58 105/288/58
f 71/289/22 116/290/22 115/291/22 77/292/22
f 76/293/22 102/294/22 103/295/22 70/296/22
f 77/297/59 105/298/59 102/299/59 76/300/59
f 108/286/28 143/301/28 144/302/28 109/287/28
f 102/303/60 106/304/60 107/305/60 103/306/60
f 105/307/61 109/308/61 106/309/61 102/310/61
f 103/311/62 107/312/62 108/313/62 104/314/62
f 82/242/63 112/315/63 113/316/63 102/245/63
f 83/317/64 77/318/64 102/319/64 82/320/64
f 102/321/22 113/322/22 114/323/22 105/324/22
f 83/325/22 82/326/22 112/327/22 111/328/22
f 77/329/65 83/330/65 111/331/65 110/332/65
f 105/324/22 114/323/22 110/333/22 77/334/22
f 118/335/66 122/336/66 120/337/66 116/338/66
f 77/339/22 115/340/22 117/341/22 105/342/22
f 104/343/22 118/344/22 116/345/22 71/346/22
f 105/347/22 117/348/22 118/349/22 104/350/22
f 135/351/22 140/352/22 139/353/22 133/354/22
f 116/355/67 120/356/67 119/357/67 115/358/67
f 115/359/68 119/360/68 121/361/68 117/362/68
f 117/363/69 121/364/69 122/365/69 118/366/69
f 72/22/6 123/46/6 126/266/6 82/242/6
f 74/367/26 124/264/26 123/265/26 72/368/26
f 83/243/70 125/263/70 124/45/70 74/24/70
f 82/326/22 126/369/22 125/370/22 83/325/22
f 129/371/22 128/372/22 127/261/22 131/253/22
f 130/373/22 129/371/22 131/253/22 132/252/22
f 90/374/71 129/371/71 130/373/71 126/375/71
f 94/376/22 96/377/22 88/378/22 86/379/22
f 126/380/12 130/381/12 132/382/12 125/383/12
f 86/384/72 128/372/72 129/371/72 90/374/72
f 127/385/18 128/386/18 86/387/18 88/388/18
f 134/389/22 136/390/22 135/351/22 133/354/22
f 121/364/6 135/391/6 136/392/6 122/365/6
f 122/336/12 136/393/12 134/394/12 120/337/12
f 120/356/28 134/395/28 133/396/28 119/357/28
f 137/397/18 139/398/18 140/399/18 138/400/18
f 119/401/26 137/402/26 138/403/26 121/404/26
f 121/364/6 138/405/6 140/406/6 135/391/6
f 133/396/28 139/407/28 137/408/28 119/357/28
f 144/409/22 143/410/22 142/411/22 141/412/22
f 106/304/6 141/413/6 142/414/6 107/305/6
f 106/304/6 145/415/6 147/416/6 141/413/6
f 107/312/12 142/417/12 143/418/12 108/313/12
f 146/419/18 148/420/18 147/421/18 145/422/18
f 141/412/22 147/423/22 148/424/22 144/409/22
f 109/425/26 146/426/26 145/427/26 106/428/26
f 144/302/28 148/429/28 146/430/28 109/287/28
f 151/431/12 150/432/12 149/433/12 152/434/12
f 101/435/73 152/436/73 149/437/73 98/438/73
f 99/439/74 150/440/74 151/441/74 100/442/74
f 98/443/75 149/444/75 150/445/75 99/446/75
